HIERARCHY
ROOT Hips
{
	OFFSET 0.000000 100.481300 0.000000
	CHANNELS 6 Xposition Yposition Zposition Xrotation Yrotation Zrotation 
	JOINT Spine
	{
		OFFSET -0.279200 12.230698 -2.892100
		CHANNELS 3 Xrotation Yrotation Zrotation
		JOINT Spine1
		{
			OFFSET -0.232667 10.192268 -1.242267
			CHANNELS 3 Xrotation Yrotation Zrotation
			JOINT Spine1_split
			{
				OFFSET -0.232667 10.192268 -1.242267
				CHANNELS 3 Xrotation Yrotation Zrotation
				JOINT Spine2
				{
					OFFSET -0.232667 10.192268 -1.242267
					CHANNELS 3 Xrotation Yrotation Zrotation
					JOINT Neck
					{
						OFFSET -0.418800 17.814194 8.416900
						CHANNELS 3 Xrotation Yrotation Zrotation
						JOINT Head
						{
							OFFSET 0.000000 7.031097 3.806800
							CHANNELS 3 Xrotation Yrotation Zrotation
							JOINT HeadTop_End
							{
								OFFSET 0.000000 24.646606 12.978600
								CHANNELS 3 Xrotation Yrotation Zrotation
								End Site
								{
									OFFSET 0.000000 0.000000 0.000000
								}
							}
						}
					}
					JOINT LeftShoulder
					{
						OFFSET 8.476499 7.247704 -3.868750
						CHANNELS 3 Xrotation Yrotation Zrotation
						JOINT LeftShoulder_split
						{
							OFFSET 8.476499 7.247704 -3.868750
							CHANNELS 3 Xrotation Yrotation Zrotation
							JOINT LeftArm
							{
								OFFSET 9.308998 -2.777710 0.208600
								CHANNELS 3 Xrotation Yrotation Zrotation
								JOINT LeftForeArm
								{
									OFFSET 29.972298 0.000000 0.000000
									CHANNELS 3 Xrotation Yrotation Zrotation
									JOINT LeftHand
									{
										OFFSET 26.026505 0.000000 0.000000
										CHANNELS 3 Xrotation Yrotation Zrotation
										JOINT LeftHandThumb1
										{
											OFFSET 12.240501 -7.147949 9.207150
											CHANNELS 3 Xrotation Yrotation Zrotation
											JOINT LeftHandThumb2
											{
												OFFSET 4.138618 -2.389435 2.389433
												CHANNELS 3 Xrotation Yrotation Zrotation
												JOINT LeftHandThumb3
												{
													OFFSET 2.726913 -1.574387 1.574386
													CHANNELS 3 Xrotation Yrotation Zrotation
													JOINT LeftHandThumb4
													{
														OFFSET 3.941010 -2.275345 2.275342
														CHANNELS 3 Xrotation Yrotation Zrotation
														End Site
														{
															OFFSET 0.000000 0.000000 0.000000
														}
													}
												}
											}
										}
										JOINT LeftHandIndex1
										{
											OFFSET 24.424698 -1.985611 5.953459
											CHANNELS 3 Xrotation Yrotation Zrotation
											JOINT LeftHandIndex2
											{
												OFFSET 6.426697 0.000000 0.000000
												CHANNELS 3 Xrotation Yrotation Zrotation
												JOINT LeftHandIndex3
												{
													OFFSET 5.337898 0.000000 0.000000
													CHANNELS 3 Xrotation Yrotation Zrotation
													JOINT LeftHandIndex4
													{
														OFFSET 4.409401 0.000000 0.000000
														CHANNELS 3 Xrotation Yrotation Zrotation
														End Site
														{
															OFFSET 0.000000 0.000000 0.000000
														}
													}
												}
											}
										}
										JOINT LeftHandMiddle1
										{
											OFFSET 23.810104 0.000000 0.000000
											CHANNELS 3 Xrotation Yrotation Zrotation
											JOINT LeftHandMiddle2
											{
												OFFSET 7.176498 0.000000 0.000000
												CHANNELS 3 Xrotation Yrotation Zrotation
												JOINT LeftHandMiddle3
												{
													OFFSET 6.774902 0.000000 0.000000
													CHANNELS 3 Xrotation Yrotation Zrotation
													JOINT LeftHandMiddle4
													{
														OFFSET 5.403328 0.000000 0.000000
														CHANNELS 3 Xrotation Yrotation Zrotation
														End Site
														{
															OFFSET 0.000000 0.000000 0.000000
														}
													}
												}
											}
										}
										JOINT LeftHandRing1
										{
											OFFSET 22.908401 -0.839279 -6.020567
											CHANNELS 3 Xrotation Yrotation Zrotation
											JOINT LeftHandRing2
											{
												OFFSET 6.337502 0.000000 0.000000
												CHANNELS 3 Xrotation Yrotation Zrotation
												JOINT LeftHandRing3
												{
													OFFSET 5.779297 0.000000 0.000000
													CHANNELS 3 Xrotation Yrotation Zrotation
													JOINT LeftHandRing4
													{
														OFFSET 4.965698 0.000000 0.000000
														CHANNELS 3 Xrotation Yrotation Zrotation
														End Site
														{
															OFFSET 0.000000 0.000000 0.000000
														}
													}
												}
											}
										}
										JOINT LeftHandPinky1
										{
											OFFSET 20.037003 -1.530319 -10.950146
											CHANNELS 3 Xrotation Yrotation Zrotation
											JOINT LeftHandPinky2
											{
												OFFSET 5.254700 0.000000 0.000000
												CHANNELS 3 Xrotation Yrotation Zrotation
												JOINT LeftHandPinky3
												{
													OFFSET 4.810204 0.000000 0.000000
													CHANNELS 3 Xrotation Yrotation Zrotation
													JOINT LeftHandPinky4
													{
														OFFSET 3.647202 0.000000 0.000000
														CHANNELS 3 Xrotation Yrotation Zrotation
														End Site
														{
															OFFSET 0.000000 0.000000 0.000000
														}
													}
												}
											}
										}
									}
								}
							}
						}
					}
					JOINT RightShoulder
					{
						OFFSET -7.570500 7.247704 -3.868750
						CHANNELS 3 Xrotation Yrotation Zrotation
						JOINT RightShoulder_split
						{
							OFFSET -7.570500 7.247704 -3.868750
							CHANNELS 3 Xrotation Yrotation Zrotation
							JOINT RightArm
							{
								OFFSET -9.308998 -2.777710 0.208500
								CHANNELS 3 Xrotation Yrotation Zrotation
								JOINT RightForeArm
								{
									OFFSET -29.972300 0.000000 0.000000
									CHANNELS 3 Xrotation Yrotation Zrotation
									JOINT RightHand
									{
										OFFSET -26.026505 0.000000 0.000000
										CHANNELS 3 Xrotation Yrotation Zrotation
										JOINT RightHandThumb1
										{
											OFFSET -12.240601 -7.148026 9.207092
											CHANNELS 3 Xrotation Yrotation Zrotation
											JOINT RightHandThumb2
											{
												OFFSET -4.138618 -2.389435 2.389433
												CHANNELS 3 Xrotation Yrotation Zrotation
												JOINT RightHandThumb3
												{
													OFFSET -2.726974 -1.574417 1.574421
													CHANNELS 3 Xrotation Yrotation Zrotation
													JOINT RightHandThumb4
													{
														OFFSET -3.941010 -2.275345 2.275343
														CHANNELS 3 Xrotation Yrotation Zrotation
														End Site
														{
															OFFSET 0.000000 0.000000 0.000000
														}
													}
												}
											}
										}
										JOINT RightHandIndex1
										{
											OFFSET -24.424698 -1.985657 5.953444
											CHANNELS 3 Xrotation Yrotation Zrotation
											JOINT RightHandIndex2
											{
												OFFSET -6.426697 0.000000 0.000000
												CHANNELS 3 Xrotation Yrotation Zrotation
												JOINT RightHandIndex3
												{
													OFFSET -5.337898 0.000000 0.000000
													CHANNELS 3 Xrotation Yrotation Zrotation
													JOINT RightHandIndex4
													{
														OFFSET -4.409401 0.000000 0.000000
														CHANNELS 3 Xrotation Yrotation Zrotation
														End Site
														{
															OFFSET 0.000000 0.000000 0.000000
														}
													}
												}
											}
										}
										JOINT RightHandMiddle1
										{
											OFFSET -23.810097 0.000000 0.000000
											CHANNELS 3 Xrotation Yrotation Zrotation
											JOINT RightHandMiddle2
											{
												OFFSET -7.176498 0.000000 0.000000
												CHANNELS 3 Xrotation Yrotation Zrotation
												JOINT RightHandMiddle3
												{
													OFFSET -6.774902 0.000000 0.000000
													CHANNELS 3 Xrotation Yrotation Zrotation
													JOINT RightHandMiddle4
													{
														OFFSET -5.403328 0.000000 0.000000
														CHANNELS 3 Xrotation Yrotation Zrotation
														End Site
														{
															OFFSET 0.000000 0.000000 0.000000
														}
													}
												}
											}
										}
										JOINT RightHandRing1
										{
											OFFSET -22.908302 -0.839325 -6.020576
											CHANNELS 3 Xrotation Yrotation Zrotation
											JOINT RightHandRing2
											{
												OFFSET -6.337502 0.000000 0.000000
												CHANNELS 3 Xrotation Yrotation Zrotation
												JOINT RightHandRing3
												{
													OFFSET -5.779297 0.000000 0.000000
													CHANNELS 3 Xrotation Yrotation Zrotation
													JOINT RightHandRing4
													{
														OFFSET -4.965698 0.000000 0.000000
														CHANNELS 3 Xrotation Yrotation Zrotation
														End Site
														{
															OFFSET 0.000000 0.000000 0.000000
														}
													}
												}
											}
										}
										JOINT RightHandPinky1
										{
											OFFSET -20.037003 -1.530334 -10.950259
											CHANNELS 3 Xrotation Yrotation Zrotation
											JOINT RightHandPinky2
											{
												OFFSET -5.254700 0.000000 0.000000
												CHANNELS 3 Xrotation Yrotation Zrotation
												JOINT RightHandPinky3
												{
													OFFSET -4.810204 0.000000 0.000000
													CHANNELS 3 Xrotation Yrotation Zrotation
													JOINT RightHandPinky4
													{
														OFFSET -3.647202 0.000000 0.000000
														CHANNELS 3 Xrotation Yrotation Zrotation
														End Site
														{
															OFFSET 0.000000 0.000000 0.000000
														}
													}
												}
											}
										}
									}
								}
							}
						}
					}
				}
			}
		}
	}
	JOINT LeftUpLeg
	{
		OFFSET 15.427100 -6.655098 0.678600
		CHANNELS 3 Xrotation Yrotation Zrotation
		JOINT LeftLeg
		{
			OFFSET 4.081073 -39.591068 13.024000
			CHANNELS 3 Xrotation Yrotation Zrotation
			JOINT LeftFoot
			{
				OFFSET -4.081074 -37.707932 -15.979700
				CHANNELS 3 Xrotation Yrotation Zrotation
				JOINT LeftToeBase
				{
					OFFSET 5.346399 -15.068900 20.645000
					CHANNELS 3 Xrotation Yrotation Zrotation
					JOINT LeftToe_End
					{
						OFFSET 2.754700 0.931300 11.300900
						CHANNELS 3 Xrotation Yrotation Zrotation
						End Site
						{
							OFFSET 0.000000 0.000000 0.000000
						}
					}
				}
			}
		}
	}
	JOINT RightUpLeg
	{
		OFFSET -15.569500 -6.655098 0.678600
		CHANNELS 3 Xrotation Yrotation Zrotation
		JOINT RightLeg
		{
			OFFSET -4.081825 -39.591045 13.023800
			CHANNELS 3 Xrotation Yrotation Zrotation
			JOINT RightFoot
			{
				OFFSET 4.081824 -37.707954 -15.979600
				CHANNELS 3 Xrotation Yrotation Zrotation
				JOINT RightToeBase
				{
					OFFSET -5.346400 -15.068900 20.645000
					CHANNELS 3 Xrotation Yrotation Zrotation
					JOINT RightToe_End
					{
						OFFSET -2.754700 0.931300 11.300900
						CHANNELS 3 Xrotation Yrotation Zrotation
						End Site
						{
							OFFSET 0.000000 0.000000 0.000000
						}
					}
				}
			}
		}
	}
}
MOTION
Frames: 5
Frame Time: 0.016667
-13.078387 125.983078 -4.119589 9.920484 -15.944303 0.420629 33.746325 9.203786 -1.771427 7.016424 1.371148 0.932973 0.000000 0.000000 0.000000 7.016147 1.356910 0.957110 7.978327 3.451510 1.914782 -5.460700 28.728131 -21.647096 -0.000000 0.000002 0.000000 0.333769 -3.623989 3.511465 0.000000 0.000000 0.000000 -39.710952 20.403438 24.454229 -0.000006 -1.659875 -0.000005 5.337930 -17.498058 -30.910455 -1.512199 3.683033 6.110829 3.939049 7.948710 0.746802 -0.579469 1.574999 2.538712 0.000002 0.000001 -0.000000 0.033128 0.675965 -5.610575 0.032965 0.674433 -5.597737 0.032971 0.674425 -5.597736 -0.000001 -0.000001 -0.000001 0.069849 0.980264 -8.151108 0.078703 1.040187 -8.653160 0.076506 1.025675 -8.531535 0.000002 0.000001 0.000003 0.141439 1.391195 -11.609552 0.158272 1.470738 -12.283630 0.154443 1.453027 -12.133350 0.000001 0.000002 0.000002 1.260519 5.698227 -14.444257 0.229469 -2.281933 -15.368551 0.231642 1.774422 -14.874757 0.000002 -0.000000 -0.000002 -3.152582 -6.176011 -32.353541 0.000000 0.000000 0.000000 -43.155321 11.870931 -9.722792 -0.000003 13.107169 0.000004 11.026657 -9.558997 61.789935 -1.849250 -3.581790 -6.586134 4.637201 -8.634114 -0.225381 -1.273757 0.137310 -2.094875 0.000005 0.000000 -0.000001 0.097305 -1.161573 9.577322 0.097306 -1.161580 9.577301 0.097319 -1.161582 9.577296 0.000002 -0.000001 -0.000001 0.734449 -4.504867 10.622744 0.142214 -1.401930 11.584690 -0.321085 -1.479189 11.440322 -0.000001 -0.000001 -0.000001 1.799549 -8.681476 12.425424 0.204355 -1.676593 13.897313 -0.341219 -1.789770 13.721058 -0.000001 0.000000 -0.000003 3.081990 -12.378811 14.479214 0.252511 -1.860372 15.457591 0.252504 -1.860349 15.457621 0.000002 0.000001 0.000000 -129.108716 -45.392467 37.567294 99.818256 -33.811147 -13.520548 35.953091 -21.401097 -23.393803 -0.018054 -0.000011 -0.000010 0.000001 -0.000000 -0.000000 -94.586229 15.479299 -38.068080 127.973143 12.016368 -16.484766 -8.107259 3.886536 49.957790 -0.009362 -0.000008 0.000010 -0.000001 0.000003 0.000002 
-13.273357 124.332848 -3.830492 10.381636 -15.703633 1.278047 33.371741 8.979388 -2.629526 6.928092 1.411405 0.809338 0.000000 0.000000 0.000000 6.927397 1.400736 0.834283 8.137142 3.359824 2.019691 -4.939799 28.238415 -21.457490 -0.000001 0.000000 0.000001 0.260232 -3.373977 3.577374 0.000000 0.000000 0.000000 -40.196059 20.677966 26.508060 -0.000001 -2.492643 0.000001 7.106747 -15.300559 -31.430591 -1.510999 3.682991 6.108663 3.939047 7.948709 0.746800 -0.579472 1.574999 2.538710 -0.000001 0.000001 0.000000 0.033127 0.675965 -5.610574 0.032964 0.674433 -5.597736 0.032977 0.674426 -5.597737 0.000001 0.000000 -0.000002 0.069852 0.980264 -8.151109 0.078695 1.040187 -8.653158 0.076507 1.025674 -8.531541 0.000000 -0.000001 -0.000001 0.141436 1.391195 -11.609551 0.158272 1.470739 -12.283629 0.154446 1.453027 -12.133351 -0.000000 -0.000000 -0.000000 1.260515 5.698225 -14.444255 0.229462 -2.281934 -15.368547 0.231639 1.774423 -14.874764 0.000000 0.000000 -0.000001 -2.438235 -4.287078 -32.305569 0.000000 0.000000 0.000000 -40.704038 7.760216 -13.687616 -0.000001 15.033129 -0.000003 9.217873 -10.057907 64.473509 -1.849255 -3.581790 -6.586133 4.637200 -8.634113 -0.225383 -1.273761 0.137310 -2.094877 -0.000000 -0.000001 -0.000001 0.097299 -1.161573 9.577323 0.097310 -1.161580 9.577305 0.097319 -1.161578 9.577297 0.000002 0.000000 -0.000000 0.734442 -4.504868 10.622742 0.142216 -1.401933 11.584692 -0.321085 -1.479190 11.440324 0.000002 0.000000 0.000003 1.799539 -8.681476 12.425425 0.204356 -1.676600 13.897313 -0.341221 -1.789774 13.721059 0.000001 -0.000001 -0.000000 3.081983 -12.378812 14.479212 0.252514 -1.860372 15.457591 0.252500 -1.860350 15.457621 -0.000001 -0.000003 -0.000002 -127.252899 -46.935151 43.960289 96.506782 -35.270393 -20.061435 39.645642 -23.841269 -19.597208 -0.018059 0.000005 -0.000005 0.000002 -0.000000 0.000000 -60.122727 37.268951 -84.785242 103.572934 43.486380 21.098692 6.774988 15.136994 42.264760 -0.008798 -0.000020 -0.000006 -0.000002 0.000000 0.000001 
-13.272142 122.207542 -3.514904 10.374653 -15.762837 1.632197 32.626929 8.939381 -3.179225 6.762704 1.484584 0.721721 0.000000 0.000000 0.000000 6.761553 1.477281 0.747487 8.034096 3.323869 2.004734 -4.484730 27.881879 -21.407109 0.000002 -0.000001 -0.000000 0.150302 -2.880988 3.833597 0.000000 0.000000 0.000000 -39.803351 20.644049 27.958483 0.000000 -3.001042 -0.000003 7.784229 -14.020437 -32.303410 -1.509854 3.682949 6.106606 3.939047 7.948709 0.746801 -0.579469 1.574999 2.538710 0.000003 -0.000001 -0.000000 0.033131 0.675965 -5.610575 0.032965 0.674433 -5.597736 0.032972 0.674424 -5.597736 -0.000001 0.000000 -0.000002 0.069855 0.980264 -8.151108 0.078700 1.040187 -8.653157 0.076508 1.025674 -8.531540 0.000001 -0.000002 0.000001 0.141440 1.391195 -11.609551 0.158271 1.470738 -12.283629 0.154446 1.453026 -12.133356 0.000005 0.000000 0.000002 1.260518 5.698224 -14.444257 0.229469 -2.281933 -15.368549 0.231642 1.774421 -14.874759 0.000000 -0.000001 -0.000000 -1.787101 -2.322995 -32.141972 0.000000 0.000000 0.000000 -38.691492 3.637159 -16.996663 -0.000008 17.122622 0.000004 6.431849 -10.848102 65.605272 -1.849253 -3.581793 -6.586137 4.637201 -8.634114 -0.225380 -1.273760 0.137309 -2.094879 0.000000 0.000000 0.000001 0.097304 -1.161575 9.577319 0.097311 -1.161580 9.577301 0.097316 -1.161579 9.577299 -0.000001 -0.000003 -0.000003 0.734446 -4.504870 10.622741 0.142217 -1.401932 11.584690 -0.321086 -1.479188 11.440324 0.000001 0.000002 0.000002 1.799545 -8.681478 12.425423 0.204358 -1.676597 13.897312 -0.341214 -1.789776 13.721059 -0.000001 -0.000000 -0.000000 3.081988 -12.378815 14.479212 0.252512 -1.860372 15.457592 0.252502 -1.860351 15.457618 0.000001 -0.000000 -0.000001 -125.962813 -46.863219 46.981931 95.274281 -35.470614 -23.462378 43.119555 -23.775523 -15.748656 -0.018094 -0.000001 -0.000004 -0.000000 -0.000001 -0.000000 -48.646943 34.691767 -89.703839 95.729377 47.009180 30.821816 1.672280 13.078062 41.399785 -0.008143 -0.000015 0.000008 0.000001 0.000003 -0.000001 
-13.141726 119.652222 -3.342367 10.075156 -15.925462 1.689018 31.603497 9.067677 -3.495370 6.538970 1.568813 0.665329 0.000000 0.000000 0.000000 6.537230 1.564635 0.691662 7.826001 3.324095 1.952253 -4.157725 27.663967 -21.379897 -0.000003 0.000000 -0.000001 0.039206 -2.385780 4.168917 0.000000 0.000000 0.000000 -38.968333 20.585635 29.044399 -0.000001 -3.374196 -0.000003 8.050757 -13.187921 -33.345906 -1.508775 3.682915 6.104660 3.939045 7.948710 0.746801 -0.579464 1.574999 2.538712 -0.000001 0.000001 0.000001 0.033129 0.675965 -5.610575 0.032964 0.674433 -5.597737 0.032975 0.674424 -5.597736 0.000000 -0.000000 -0.000002 0.069853 0.980264 -8.151109 0.078699 1.040187 -8.653160 0.076505 1.025674 -8.531540 -0.000001 0.000000 0.000003 0.141438 1.391195 -11.609550 0.158274 1.470739 -12.283630 0.154445 1.453026 -12.133352 0.000002 -0.000000 0.000001 1.260523 5.698226 -14.444257 0.229471 -2.281932 -15.368547 0.231643 1.774423 -14.874754 -0.000003 -0.000003 -0.000002 -1.195181 -0.396599 -31.763344 0.000000 0.000000 0.000000 -37.135134 -0.211840 -19.628946 0.000006 19.145497 -0.000008 4.004377 -11.617238 66.067218 -1.849257 -3.581792 -6.586138 4.637201 -8.634116 -0.225384 -1.273761 0.137311 -2.094876 0.000002 -0.000001 -0.000001 0.097300 -1.161574 9.577323 0.097314 -1.161581 9.577304 0.097318 -1.161581 9.577293 0.000002 0.000001 -0.000000 0.734444 -4.504870 10.622744 0.142221 -1.401931 11.584694 -0.321083 -1.479191 11.440315 0.000001 -0.000001 -0.000002 1.799540 -8.681479 12.425427 0.204356 -1.676596 13.897316 -0.341218 -1.789776 13.721063 -0.000001 -0.000000 0.000001 3.081984 -12.378813 14.479212 0.252509 -1.860374 15.457591 0.252502 -1.860346 15.457616 -0.000001 -0.000002 -0.000001 -125.637259 -45.798184 46.777524 95.882681 -34.698911 -23.976030 45.025140 -22.550863 -13.098153 -0.017426 0.000001 0.000004 0.000003 0.000000 -0.000001 -45.466175 32.868926 -85.889704 95.172696 46.993877 31.307511 -4.409301 10.478627 40.390552 -0.007141 0.000001 -0.000007 0.000000 0.000004 -0.000002 
-12.882496 116.761185 -3.435905 9.380717 -16.063172 1.449216 30.438738 9.462310 -3.555895 6.286039 1.654823 0.662580 0.000000 0.000000 0.000000 6.283578 1.652843 0.689201 7.656663 3.360289 1.905505 -4.140572 27.693043 -21.293166 0.000001 0.000000 -0.000002 -0.029576 -2.134307 4.558659 0.000000 0.000000 0.000000 -37.997995 20.763767 30.040518 0.000005 -3.667785 0.000003 8.120514 -12.981496 -34.557260 -1.507743 3.682879 6.102818 3.939044 7.948709 0.746802 -0.579467 1.574998 2.538713 0.000001 -0.000000 0.000000 0.033126 0.675965 -5.610574 0.032967 0.674433 -5.597737 0.032974 0.674425 -5.597735 -0.000000 0.000000 -0.000002 0.069856 0.980264 -8.151108 0.078700 1.040187 -8.653158 0.076506 1.025675 -8.531537 -0.000001 -0.000001 0.000001 0.141439 1.391195 -11.609552 0.158274 1.470740 -12.283630 0.154448 1.453026 -12.133350 -0.000002 -0.000001 0.000001 1.260522 5.698224 -14.444255 0.229470 -2.281935 -15.368545 0.231641 1.774422 -14.874757 0.000000 -0.000001 -0.000001 -0.769559 1.209640 -31.233769 0.000000 0.000000 0.000000 -36.055872 -3.151202 -21.148525 -0.000005 20.611966 0.000007 3.113602 -11.902698 66.283175 -1.849250 -3.581788 -6.586135 4.637202 -8.634115 -0.225384 -1.273763 0.137309 -2.094876 -0.000001 0.000000 0.000000 0.097304 -1.161573 9.577322 0.097311 -1.161581 9.577305 0.097319 -1.161580 9.577293 0.000001 0.000000 -0.000002 0.734449 -4.504868 10.622746 0.142219 -1.401930 11.584692 -0.321086 -1.479193 11.440320 0.000000 -0.000001 0.000002 1.799547 -8.681476 12.425427 0.204355 -1.676595 13.897317 -0.341217 -1.789773 13.721060 0.000001 -0.000001 -0.000001 3.081989 -12.378811 14.479217 0.252513 -1.860373 15.457591 0.252500 -1.860349 15.457623 -0.000000 0.000000 0.000001 -126.824564 -43.801003 42.778704 98.385965 -32.880497 -21.304458 44.336530 -21.063615 -12.542233 -0.015267 0.000007 -0.000001 0.000002 -0.000001 -0.000001 -45.240427 31.175128 -79.386606 97.784219 45.761823 27.909799 -10.619377 7.531954 38.878424 -0.005385 0.000009 -0.000011 -0.000001 0.000003 0.000000 
